<mxfile host="app.diagrams.net" agent="Mozilla/5.0 (Windows NT 10.0; Win64; x64) AppleWebKit/537.36 (KHTML, like Gecko) Chrome/127.0.0.0 Safari/537.36 Edg/127.0.0.0" version="24.7.7">
  <diagram id="C5RBs43oDa-KdzZeNtuy" name="Page-1">
    <mxGraphModel dx="1700" dy="995" grid="0" gridSize="10" guides="1" tooltips="1" connect="1" arrows="1" fold="1" page="0" pageScale="1" pageWidth="827" pageHeight="1169" background="#0A0A0A" math="0" shadow="0">
      <root>
        <mxCell id="WIyWlLk6GJQsqaUBKTNV-0" />
        <mxCell id="WIyWlLk6GJQsqaUBKTNV-1" parent="WIyWlLk6GJQsqaUBKTNV-0" />
        <mxCell id="KgXIhlz3eobPMI4XwH9h-1" value="&lt;p style=&quot;text-align: center; box-sizing: border-box; width: 100%; background: rgb(228, 228, 228); padding: 2px; line-height: 150%; margin-top: 0px; border-radius: 15px 15px 0 0;&quot;&gt;&lt;b&gt;FILME&lt;/b&gt;&lt;/p&gt;&lt;table cellspacing=&quot;0&quot; cellpadding=&quot;2&quot; style=&quot;width: 100%; font-size: 1em;&quot;&gt;&lt;tbody&gt;&lt;tr&gt;&lt;td&gt;&lt;b&gt;PK&lt;/b&gt;&lt;/td&gt;&lt;td&gt;&lt;b&gt;IDFilme&lt;/b&gt;&lt;/td&gt;&lt;/tr&gt;&lt;tr&gt;&lt;td&gt;&lt;br&gt;&lt;/td&gt;&lt;td&gt;Titulo&lt;/td&gt;&lt;/tr&gt;&lt;tr&gt;&lt;td&gt;&lt;br&gt;&lt;/td&gt;&lt;td&gt;Genero&lt;/td&gt;&lt;/tr&gt;&lt;tr&gt;&lt;td&gt;&lt;br&gt;&lt;/td&gt;&lt;td&gt;Duracao&lt;/td&gt;&lt;/tr&gt;&lt;tr&gt;&lt;td&gt;&lt;br&gt;&lt;/td&gt;&lt;td&gt;Classificacao&lt;/td&gt;&lt;/tr&gt;&lt;tr&gt;&lt;td&gt;&lt;br&gt;&lt;/td&gt;&lt;td&gt;DataLancamento&lt;/td&gt;&lt;/tr&gt;&lt;tr&gt;&lt;td&gt;&lt;br&gt;&lt;/td&gt;&lt;td&gt;Sinopse&lt;/td&gt;&lt;/tr&gt;&lt;tr&gt;&lt;td&gt;&lt;br&gt;&lt;/td&gt;&lt;td&gt;Diretor&lt;/td&gt;&lt;/tr&gt;&lt;tr&gt;&lt;td&gt;&lt;br&gt;&lt;/td&gt;&lt;td&gt;Elendo&lt;/td&gt;&lt;/tr&gt;&lt;tr&gt;&lt;td&gt;-&lt;/td&gt;&lt;td&gt;-&lt;/td&gt;&lt;/tr&gt;&lt;tr&gt;&lt;td&gt;-&lt;/td&gt;&lt;td&gt;-&lt;/td&gt;&lt;/tr&gt;&lt;/tbody&gt;&lt;/table&gt;" style="verticalAlign=top;align=left;overflow=fill;html=1;whiteSpace=wrap;rounded=1;arcSize=11;glass=0;shadow=1;fillColor=#ced0df;strokeColor=#e2e0e6;fillStyle=auto;strokeWidth=2;perimeterSpacing=0;gradientColor=none;" vertex="1" parent="WIyWlLk6GJQsqaUBKTNV-1">
          <mxGeometry x="-919" y="-278" width="160" height="201" as="geometry" />
        </mxCell>
        <mxCell id="KgXIhlz3eobPMI4XwH9h-76" value="&lt;p style=&quot;text-align: center; box-sizing: border-box; width: 100%; background: rgb(228, 228, 228); padding: 2px; line-height: 150%; margin-top: 0px; border-radius: 15px 15px 0 0;&quot;&gt;SESSAO&lt;/p&gt;&lt;table style=&quot;width: 100%; font-size: 1em;&quot; cellpadding=&quot;2&quot; cellspacing=&quot;0&quot;&gt;&lt;tbody&gt;&lt;tr&gt;&lt;td&gt;PK&lt;/td&gt;&lt;td&gt;IDSessao&lt;/td&gt;&lt;/tr&gt;&lt;tr&gt;&lt;td&gt;FK&lt;/td&gt;&lt;td&gt;IDFilme&lt;/td&gt;&lt;/tr&gt;&lt;tr&gt;&lt;td&gt;FK&lt;/td&gt;&lt;td&gt;IDSala&lt;/td&gt;&lt;/tr&gt;&lt;tr&gt;&lt;td&gt;&lt;br&gt;&lt;/td&gt;&lt;td&gt;&lt;span style=&quot;font-weight: 400;&quot;&gt;Data&lt;/span&gt;&lt;/td&gt;&lt;/tr&gt;&lt;tr&gt;&lt;td&gt;&lt;br&gt;&lt;/td&gt;&lt;td&gt;&lt;span style=&quot;font-weight: 400;&quot;&gt;Idioma&lt;/span&gt;&lt;/td&gt;&lt;/tr&gt;&lt;tr&gt;&lt;td&gt;&lt;br&gt;&lt;/td&gt;&lt;td&gt;&lt;span style=&quot;font-weight: 400;&quot;&gt;Formato&lt;/span&gt;&lt;/td&gt;&lt;/tr&gt;&lt;tr&gt;&lt;td&gt;&lt;span style=&quot;font-weight: normal;&quot;&gt;-&lt;/span&gt;&lt;/td&gt;&lt;td&gt;&lt;span style=&quot;font-weight: normal;&quot;&gt;-&lt;/span&gt;&lt;/td&gt;&lt;/tr&gt;&lt;tr&gt;&lt;td&gt;&lt;span style=&quot;font-weight: normal;&quot;&gt;-&lt;/span&gt;&lt;/td&gt;&lt;td&gt;&lt;span style=&quot;font-weight: normal;&quot;&gt;-&lt;/span&gt;&lt;/td&gt;&lt;/tr&gt;&lt;tr&gt;&lt;td&gt;&lt;span style=&quot;font-weight: normal;&quot;&gt;-&lt;/span&gt;&lt;/td&gt;&lt;td&gt;&lt;span style=&quot;font-weight: normal;&quot;&gt;-&lt;/span&gt;&lt;/td&gt;&lt;/tr&gt;&lt;tr&gt;&lt;td&gt;&lt;span style=&quot;font-weight: normal;&quot;&gt;-&lt;/span&gt;&lt;/td&gt;&lt;td&gt;&lt;span style=&quot;font-weight: normal;&quot;&gt;-&lt;/span&gt;&lt;/td&gt;&lt;/tr&gt;&lt;tr&gt;&lt;td&gt;&lt;span style=&quot;font-weight: normal;&quot;&gt;-&lt;/span&gt;&lt;/td&gt;&lt;td&gt;&lt;span style=&quot;font-weight: normal;&quot;&gt;-&lt;/span&gt;&lt;/td&gt;&lt;/tr&gt;&lt;/tbody&gt;&lt;/table&gt;" style="verticalAlign=top;align=left;overflow=fill;html=1;whiteSpace=wrap;rounded=1;arcSize=11;glass=0;shadow=1;fillColor=#ced0df;strokeColor=#e2e0e6;fillStyle=auto;strokeWidth=2;perimeterSpacing=0;gradientColor=none;fontFamily=Helvetica;fontSize=12;fontColor=default;fontStyle=1;" vertex="1" parent="WIyWlLk6GJQsqaUBKTNV-1">
          <mxGeometry x="-919" y="-64" width="160" height="146" as="geometry" />
        </mxCell>
        <mxCell id="KgXIhlz3eobPMI4XwH9h-77" value="&lt;p style=&quot;text-align: center; box-sizing: border-box; width: 100%; background: rgb(228, 228, 228); padding: 2px; line-height: 150%; margin-top: 0px; border-radius: 15px 15px 0px 0px;&quot;&gt;&lt;b&gt;SALA&lt;/b&gt;&lt;/p&gt;&lt;table style=&quot;width: 100%; font-size: 1em;&quot; cellpadding=&quot;2&quot; cellspacing=&quot;0&quot;&gt;&lt;tbody&gt;&lt;tr&gt;&lt;td&gt;PK&lt;/td&gt;&lt;td&gt;IDSala&lt;/td&gt;&lt;/tr&gt;&lt;tr&gt;&lt;td&gt;&lt;br&gt;&lt;/td&gt;&lt;td&gt;&lt;span style=&quot;font-weight: 400;&quot;&gt;Numero&lt;/span&gt;&lt;/td&gt;&lt;/tr&gt;&lt;tr&gt;&lt;td&gt;&lt;br&gt;&lt;/td&gt;&lt;td&gt;&lt;span style=&quot;font-weight: 400;&quot;&gt;Capacidade&lt;/span&gt;&lt;/td&gt;&lt;/tr&gt;&lt;tr&gt;&lt;td&gt;&lt;br&gt;&lt;/td&gt;&lt;td&gt;&lt;span style=&quot;font-weight: 400;&quot;&gt;Tipo&lt;/span&gt;&lt;/td&gt;&lt;/tr&gt;&lt;tr&gt;&lt;td&gt;&lt;span style=&quot;font-weight: normal;&quot;&gt;-&lt;/span&gt;&lt;/td&gt;&lt;td&gt;&lt;span style=&quot;font-weight: normal;&quot;&gt;-&lt;/span&gt;&lt;/td&gt;&lt;/tr&gt;&lt;tr&gt;&lt;td&gt;&lt;span style=&quot;font-weight: normal;&quot;&gt;-&lt;/span&gt;&lt;/td&gt;&lt;td&gt;&lt;span style=&quot;font-weight: normal;&quot;&gt;-&lt;/span&gt;&lt;/td&gt;&lt;/tr&gt;&lt;tr&gt;&lt;td&gt;&lt;span style=&quot;font-weight: normal;&quot;&gt;-&lt;/span&gt;&lt;/td&gt;&lt;td&gt;&lt;span style=&quot;font-weight: normal;&quot;&gt;-&lt;/span&gt;&lt;/td&gt;&lt;/tr&gt;&lt;tr&gt;&lt;td&gt;&lt;span style=&quot;font-weight: normal;&quot;&gt;-&lt;/span&gt;&lt;/td&gt;&lt;td&gt;&lt;span style=&quot;font-weight: normal;&quot;&gt;-&lt;/span&gt;&lt;/td&gt;&lt;/tr&gt;&lt;tr&gt;&lt;td&gt;&lt;span style=&quot;font-weight: normal;&quot;&gt;-&lt;/span&gt;&lt;/td&gt;&lt;td&gt;&lt;span style=&quot;font-weight: normal;&quot;&gt;-&lt;/span&gt;&lt;/td&gt;&lt;/tr&gt;&lt;tr&gt;&lt;td&gt;&lt;span style=&quot;font-weight: normal;&quot;&gt;-&lt;/span&gt;&lt;/td&gt;&lt;td&gt;&lt;span style=&quot;font-weight: normal;&quot;&gt;-&lt;/span&gt;&lt;/td&gt;&lt;/tr&gt;&lt;tr&gt;&lt;td&gt;&lt;span style=&quot;font-weight: normal;&quot;&gt;-&lt;/span&gt;&lt;/td&gt;&lt;td&gt;&lt;span style=&quot;font-weight: normal;&quot;&gt;-&lt;/span&gt;&lt;/td&gt;&lt;/tr&gt;&lt;/tbody&gt;&lt;/table&gt;" style="verticalAlign=top;align=left;overflow=fill;html=1;whiteSpace=wrap;rounded=1;arcSize=11;glass=0;shadow=1;fillColor=#ced0df;strokeColor=#e2e0e6;fillStyle=auto;strokeWidth=2;perimeterSpacing=0;gradientColor=none;fontFamily=Helvetica;fontSize=12;fontColor=default;fontStyle=1;" vertex="1" parent="WIyWlLk6GJQsqaUBKTNV-1">
          <mxGeometry x="-919" y="97" width="160" height="111" as="geometry" />
        </mxCell>
      </root>
    </mxGraphModel>
  </diagram>
</mxfile>
